<?xml version="1.0" encoding="UTF-8"?>
<svg width="44px" height="44px" viewBox="0 0 44 44" version="1.1" xmlns="http://www.w3.org/2000/svg" xmlns:xlink="http://www.w3.org/1999/xlink">
    <!-- Generator: Sketch 47.1 (45422) - http://www.bohemiancoding.com/sketch -->
    <title>android</title>
    <desc>Created with Sketch.</desc>
    <defs></defs>
    <g id="Social-Icons" stroke="none" stroke-width="1" fill="none" fill-rule="evenodd">
        <g id="social-icons" transform="translate(-100.000000, -460.000000)">
            <g id="android" transform="translate(100.000000, 460.000000)">
                <rect id="Rectangle" x="0" y="0" width="44" height="44"></rect>
                <circle id="Oval" stroke="#000000" stroke-width="2" cx="22" cy="22" r="21"></circle>
                <path d="M24.8164998,12.8418391 L25.0463928,12.4822415 L25.2738005,12.127818 L25.7845357,11.3310118 C25.846669,11.2327046 25.8218157,11.1007659 25.7273731,11.03609 C25.6329306,10.9701207 25.5061788,10.9972846 25.4440456,11.0955918 L24.897273,11.9493127 L24.6661374,12.3076168 L24.4337591,12.6723884 C23.6943735,12.3735861 22.8704867,12.2067225 21.9993787,12.2067225 C21.130756,12.2067225 20.3056265,12.3735861 19.5674836,12.6723884 L19.3338626,12.3076168 L19.1052123,11.9493127 L18.5571971,11.0955918 C18.4938212,10.9972846 18.368312,10.9714142 18.2738695,11.03609 C18.179427,11.1007659 18.1545737,11.2327046 18.2167069,11.3310118 L18.7261995,12.127818 L18.9536072,12.4822415 L19.1847428,12.8418391 C17.4474974,13.6839183 16.2731792,15.2788241 16.2731792,17.1039759 L27.7268208,17.1039759 C27.7268208,15.2788241 26.5525026,13.6839183 24.8164998,12.8418391 L24.8164998,12.8418391 Z M19.5463583,15.4004147 C19.2058681,15.4004147 18.9324819,15.1145475 18.9324819,14.7614175 C18.9324819,14.4082875 19.2058681,14.1237139 19.5463583,14.1237139 C19.8843631,14.1237139 20.1589921,14.4082875 20.1589921,14.7614175 C20.1589921,15.1145475 19.8843631,15.4004147 19.5463583,15.4004147 L19.5463583,15.4004147 Z M24.4536417,15.4004147 C24.1156369,15.4004147 23.8410079,15.1145475 23.8410079,14.7614175 C23.8410079,14.4082875 24.1156369,14.1237139 24.4536417,14.1237139 C24.7941319,14.1237139 25.0675181,14.4082875 25.0675181,14.7614175 C25.0675181,15.1145475 24.7941319,15.4004147 24.4536417,15.4004147 Z M16.3614084,17.9551097 L27.7268208,17.9551097 L27.7268208,27.3227561 C27.7268208,28.0665281 27.1464964,28.6718938 26.4319641,28.6718938 L25.4962375,28.6718938 C25.5273041,28.7844298 25.5459441,28.9021398 25.5459441,29.0263174 L25.5459441,31.7232992 C25.5459441,32.4282657 24.9966862,33 24.3181912,33 C23.6409389,33 23.091681,32.4282657 23.091681,31.7232992 L23.091681,29.0263174 C23.091681,28.9021398 23.1078357,28.7844298 23.140145,28.6718938 L20.8610977,28.6718938 C20.8921643,28.7844298 20.9108043,28.9021398 20.9108043,29.0263174 L20.9108043,31.7232992 C20.9108043,32.4282657 20.3590611,33 19.6818088,33 C19.0045564,33 18.4552986,32.4282657 18.4552986,31.7232992 L18.4552986,29.0263174 C18.4552986,28.9021398 18.4726959,28.7844298 18.5037625,28.6718938 L17.5692786,28.6718938 C16.8547463,28.6718938 16.2731792,28.0665281 16.2731792,27.3227561 L16.2731792,17.9551097 L16.3614084,17.9551097 Z M14.2289955,17.9551097 C14.9062478,17.9551097 15.4555057,18.526844 15.4555057,19.2318105 L15.4555057,24.6969177 C15.4555057,25.4018842 14.9062478,25.9736184 14.2289955,25.9736184 C13.5505005,25.9736184 13,25.4018842 13,24.6969177 L13,19.2318105 C13,18.526844 13.5505005,17.9551097 14.2289955,17.9551097 Z M29.7722472,17.9551097 C30.4494995,17.9551097 31,18.526844 31,19.2318105 L31,24.6969177 C31,25.4018842 30.4494995,25.9736184 29.7722472,25.9736184 C29.0949948,25.9736184 28.5444943,25.4018842 28.5444943,24.6969177 L28.5444943,19.2318105 C28.5444943,18.526844 29.0949948,17.9551097 29.7722472,17.9551097 Z" id="Shape" fill="#000000"></path>
            </g>
        </g>
    </g>
</svg>