<?xml version="1.0" encoding="UTF-8"?>
<svg width="44px" height="44px" viewBox="0 0 44 44" version="1.1" xmlns="http://www.w3.org/2000/svg" xmlns:xlink="http://www.w3.org/1999/xlink">
    <!-- Generator: Sketch 47.1 (45422) - http://www.bohemiancoding.com/sketch -->
    <title>apple</title>
    <desc>Created with Sketch.</desc>
    <defs></defs>
    <g id="Social-Icons" stroke="none" stroke-width="1" fill="none" fill-rule="evenodd">
        <g id="social-icons" transform="translate(-40.000000, -460.000000)">
            <g id="apple" transform="translate(40.000000, 460.000000)">
                <rect id="Rectangle" x="0" y="0" width="44" height="44"></rect>
                <circle id="Oval" stroke="#000000" stroke-width="2" cx="22" cy="22" r="21"></circle>
                <path d="M31,26.1409957 C30.5097917,27.2856095 30.2733093,27.7951891 29.6402262,28.8091747 C28.7571122,30.2215118 27.5106529,31.9830532 25.9661273,31.9959867 C24.5952684,32.0102135 24.2430081,31.0583086 22.3807092,31.0699488 C20.5208737,31.0802956 20.1316631,32.0128002 18.7595725,31.9998667 C17.2162785,31.9856399 16.0363299,30.3961139 15.1519842,28.9824835 C12.6812358,25.0325956 12.4213515,20.394646 13.9461703,17.9282294 C15.030048,16.1770349 16.738387,15.1527025 18.3457283,15.1527025 C19.9801665,15.1527025 21.0086186,16.0942605 22.362234,16.0942605 C23.6739723,16.0942605 24.4733321,15.1501158 26.3651913,15.1501158 C27.7964025,15.1501158 29.3113679,15.9688057 30.3903188,17.3811428 C26.8529363,19.4181675 27.4268988,24.7208985 31,26.1409957 L31,26.1409957 Z M24.9315168,13.5709366 C25.6175621,12.6448987 26.139794,11.3360295 25.9513471,10 C24.8280557,10.0801876 23.5138541,10.8316234 22.7477496,11.8093953 C22.0506192,12.6953393 21.4766567,14.013262 21.6995907,15.2936775 C22.9288065,15.3337713 24.1962043,14.5642287 24.9315168,13.5709366 L24.9315168,13.5709366 Z" id="Shape" fill="#000000"></path>
            </g>
        </g>
    </g>
</svg>