<?xml version="1.0" encoding="UTF-8"?>
<svg width="44px" height="44px" viewBox="0 0 44 44" version="1.1" xmlns="http://www.w3.org/2000/svg" xmlns:xlink="http://www.w3.org/1999/xlink">
    <!-- Generator: Sketch 47.1 (45422) - http://www.bohemiancoding.com/sketch -->
    <title>foursquare</title>
    <desc>Created with Sketch.</desc>
    <defs></defs>
    <g id="Social-Icons" stroke="none" stroke-width="1" fill="none" fill-rule="evenodd">
        <g id="social-icons" transform="translate(-460.000000, -160.000000)">
            <g id="foursquare" transform="translate(460.000000, 160.000000)">
                <rect id="Rectangle" x="0" y="0" width="44" height="44"></rect>
                <circle id="Oval" stroke="#000000" stroke-width="2" cx="22" cy="22" r="21"></circle>
                <path d="M28.3347039,15.1757385 L27.8347383,17.7426679 C27.7749821,18.0201583 27.4203893,18.3120412 27.0915108,18.3120412 L22.4512693,18.3120412 C21.9292422,18.3120412 21.5555099,18.6626462 21.5555099,19.1764639 L21.5555099,19.7361941 C21.5555099,20.2504435 21.9314337,20.6148655 22.4538992,20.6148655 L26.3906531,20.6148655 C26.7592718,20.6148655 27.1211697,21.0131101 27.0413973,21.4008482 C26.9613327,21.7891619 26.5871621,23.7128837 26.5421623,23.9251753 C26.4970164,24.1377548 26.2499556,24.5008814 25.8116457,24.5008814 L22.5982493,24.5008814 C22.0129594,24.5008814 21.8360282,24.5761549 21.4444713,25.0555742 C21.0527683,25.5352812 17.5316783,29.7006585 17.5316783,29.7006585 C17.4960291,29.7409579 17.4612565,29.7292999 17.4612565,29.6852584 L17.4612565,15.137598 C17.4612565,14.8094456 17.7508333,14.4244421 18.1851985,14.4244421 L27.7438621,14.4244421 C28.0956789,14.4244421 28.4244113,14.7501478 28.3347039,15.1757385 L28.3347039,15.1757385 Z M28.7543126,25.2410954 C28.8872667,24.7113019 30.3788355,17.1892705 30.8769017,14.8028249 L28.7543126,25.2410954 Z M17.1271182,12 C15.4833098,12 15,13.2177622 15,13.9846027 L15,32.627692 C15,33.491539 15.4713293,33.8119194 15.7359224,33.9175615 C16.0009538,34.0233474 16.7316165,34.112438 17.1696343,33.6145961 C17.1696343,33.6145961 22.793005,27.1866941 22.8895793,27.0915586 C23.0356826,26.9476321 23.0356826,26.9476321 23.1817859,26.9476321 L26.8200508,26.9476321 C28.3488759,26.9476321 28.5946217,25.8736525 28.7543126,25.2410954 C28.8872667,24.7113019 30.3788355,17.1892705 30.8769017,14.8028249 C31.2570625,12.9817228 30.7873403,12 29.0381914,12 L17.1271182,12 Z" id="Shape" fill="#000000"></path>
            </g>
        </g>
    </g>
</svg>