<?xml version="1.0" encoding="UTF-8"?>
<svg width="44px" height="44px" viewBox="0 0 44 44" version="1.1" xmlns="http://www.w3.org/2000/svg" xmlns:xlink="http://www.w3.org/1999/xlink">
    <!-- Generator: Sketch 47.1 (45422) - http://www.bohemiancoding.com/sketch -->
    <title>googleplay</title>
    <desc>Created with Sketch.</desc>
    <defs></defs>
    <g id="Social-Icons" stroke="none" stroke-width="1" fill="none" fill-rule="evenodd">
        <g id="social-icons" transform="translate(-160.000000, -460.000000)">
            <g id="googleplay" transform="translate(160.000000, 460.000000)">
                <rect id="Rectangle" x="0" y="0" width="44" height="44"></rect>
                <circle id="Oval" stroke="#000000" stroke-width="2" cx="22" cy="22" r="21"></circle>
                <path d="M26.8355771,22.3820031 L16.1452182,32.6997109 L16.1319691,32.7125919 L15.8239277,33 C16.2950985,32.7351338 25.2398899,27.7219966 25.2398899,27.7219966 L29.7429241,25.1828228 L29.6013244,25.0580378 L26.8355771,22.3820031 Z M30.2960736,19.0546712 L30.2323123,19.1174662 L30.2190632,19.1174662 L30.1163828,19.2301753 L28.8038949,20.4933216 L27.4019756,21.84422 L27.3754775,21.857101 L27.3754775,21.8683719 L27.272797,21.956929 L30.1163828,24.7078347 L30.2190632,24.8205438 L30.2323123,24.8205438 L30.2960736,24.8825338 L34.6061679,22.4568742 C35.0773387,22.1920079 35.105493,21.8369744 34.7982797,21.5938449 C34.7767499,21.5761335 34.7469395,21.5600322 34.7212694,21.5439309 L34.6442591,21.4932118 C34.2186321,21.271014 30.7730408,19.3227577 30.2960736,19.0546712 L30.2960736,19.0546712 Z M15.1291786,11.099828 C15.0521683,11.2012661 15,11.3437626 15,11.5257072 L15,21.969005 L15,32.6127639 C15,32.725473 15.024842,32.8220807 15.0645893,32.8993669 L15.0778384,32.888096 L15.0902594,32.888096 L15.2318591,32.7375489 L26.3983571,21.956929 L26.3080977,21.8683719 L26.2956767,21.8683719 L26.2567575,21.84422 L15.2956203,11.2503751 L15.1805188,11.137666 L15.1283506,11.099828 L15.1291786,11.099828 Z M15.9009381,11 L16.119548,11.2004611 L16.1452182,11.2262231 L16.1576392,11.2262231 L26.8355771,21.5439309 L27.9675461,20.4554836 L29.6013244,18.8791671 L29.7429241,18.7543821 L25.2398899,16.2160135 L16.0168676,11.037838 C16.0044466,11.0305925 15.9903694,11.0313975 15.9779484,11.0257621 C15.9522783,11.012076 15.9257801,11.0112709 15.9009381,11 L15.9009381,11 Z" id="Shape" fill="#000000"></path>
            </g>
        </g>
    </g>
</svg>