<?xml version="1.0" encoding="UTF-8"?>
<svg width="44px" height="44px" viewBox="0 0 44 44" version="1.1" xmlns="http://www.w3.org/2000/svg" xmlns:xlink="http://www.w3.org/1999/xlink">
    <!-- Generator: Sketch 47.1 (45422) - http://www.bohemiancoding.com/sketch -->
    <title>googleplus</title>
    <desc>Created with Sketch.</desc>
    <defs></defs>
    <g id="Social-Icons" stroke="none" stroke-width="1" fill="none" fill-rule="evenodd">
        <g id="social-icons" transform="translate(-160.000000, -40.000000)">
            <g id="googleplus" transform="translate(160.000000, 40.000000)">
                <rect id="Rectangle" x="0" y="0" width="44" height="44"></rect>
                <circle id="Oval" stroke="#000000" stroke-width="2" cx="22" cy="22" r="21"></circle>
                <path d="M18.4851046,20.3168153 L26.6339032,20.3168153 C27.2012539,24.3902216 25.4892714,30.5 18.4851046,30.5 C13.7993302,30.5 10,26.6940496 10,21.999669 C10,17.3052884 13.7993302,13.5 18.4851046,13.5 C20.6836715,13.5 22.6869426,14.3374547 24.1943612,15.7118073 C22.4188247,17.3920129 22.4770824,17.4919779 21.7793138,18.1910705 C20.9074341,17.4688072 19.956774,16.9504459 18.4851046,16.9504459 C15.7013124,16.9504459 13.5285642,19.2112426 13.5285642,21.999669 C13.5285642,24.7887574 15.7013124,27.0495541 18.4851046,27.0495541 C21.2357958,27.0495541 22.3532848,25.861229 23.072238,23.6785506 C21.7448888,23.6785506 18.4851046,23.6831847 18.4851046,23.6831847 L18.4851046,20.3168153 Z M33.774446,20.4849683 L36.7144749,20.4849683 L36.7144749,22.5888664 L33.774446,22.5888664 L33.774446,25.6189299 L31.67452,25.6189299 L31.67452,22.5888664 L28.6497527,22.5888664 L28.6497527,20.4849683 L31.67452,20.4849683 L31.67452,17.5396433 L33.774446,17.5396433 L33.774446,20.4849683 Z" id="Shape" fill="#000000"></path>
            </g>
        </g>
    </g>
</svg>