<?xml version="1.0" encoding="UTF-8"?>
<svg width="44px" height="44px" viewBox="0 0 44 44" version="1.1" xmlns="http://www.w3.org/2000/svg" xmlns:xlink="http://www.w3.org/1999/xlink">
    <!-- Generator: Sketch 47.1 (45422) - http://www.bohemiancoding.com/sketch -->
    <title>like</title>
    <desc>Created with Sketch.</desc>
    <defs></defs>
    <g id="Social-Icons" stroke="none" stroke-width="1" fill="none" fill-rule="evenodd">
        <g id="social-icons" transform="translate(-580.000000, -400.000000)">
            <g id="like" transform="translate(580.000000, 400.000000)">
                <rect id="Rectangle" x="0" y="0" width="44" height="44"></rect>
                <circle id="Oval" stroke="#000000" stroke-width="2" cx="22" cy="22" r="21"></circle>
                <path d="M26.1984384,15 C25.7833288,15 25.3597123,15.0746672 24.9278356,15.2238737 C24.4958356,15.373208 24.0940411,15.5747071 23.7225753,15.8281153 C23.350863,16.0815234 23.0313014,16.3194611 22.763274,16.5416727 C22.4954932,16.7638842 22.2410274,17.000032 22,17.249988 C21.7588493,17.000032 21.5043836,16.7638842 21.2366027,16.5416727 C20.9686986,16.3194611 20.6490137,16.0816512 20.2773014,15.8281153 C19.905589,15.5745793 19.5037945,15.373208 19.0719178,15.2238737 C18.6400411,15.0746672 18.2164247,15 17.8013151,15 C16.301274,15 15.1260959,15.4306148 14.2756575,16.2917166 C13.4252192,17.1528184 13,18.3472375 13,19.874974 C13,20.3402375 13.0787808,20.819565 13.2360959,21.3124451 C13.393411,21.805453 13.5726712,22.2257116 13.7735068,22.5728373 C13.9743425,22.9199629 14.2020548,23.2586502 14.4565205,23.5885154 C14.7109863,23.9183807 14.8969041,24.1457065 15.0140274,24.2707484 C15.1311507,24.3956625 15.2232466,24.485928 15.2901918,24.541417 L21.5580137,30.8123092 C21.678589,30.937479 21.8259178,31 22,31 C22.1740822,31 22.321411,30.937479 22.4419863,30.8125649 L28.6998219,24.5623851 C30.233274,22.9722555 31,21.4097425 31,19.874974 C31,18.3472375 30.5746575,17.1528184 29.7242192,16.2917166 C28.8737808,15.430487 27.6986027,15 26.1984384,15 Z" id="Shape" fill="#000000"></path>
            </g>
        </g>
    </g>
</svg>