<?xml version="1.0" encoding="UTF-8"?>
<svg width="44px" height="44px" viewBox="0 0 44 44" version="1.1" xmlns="http://www.w3.org/2000/svg" xmlns:xlink="http://www.w3.org/1999/xlink">
    <!-- Generator: Sketch 47.1 (45422) - http://www.bohemiancoding.com/sketch -->
    <title>pocket</title>
    <desc>Created with Sketch.</desc>
    <defs></defs>
    <g id="Social-Icons" stroke="none" stroke-width="1" fill="none" fill-rule="evenodd">
        <g id="social-icons" transform="translate(-520.000000, -100.000000)">
            <g id="pocket" transform="translate(520.000000, 100.000000)">
                <rect id="Rectangle" x="0" y="0" width="44" height="44"></rect>
                <circle id="Oval" stroke="#000000" stroke-width="2" cx="22" cy="22" r="21"></circle>
                <path d="M28.1379218,21.4238066 L22.9637106,26.3867695 C22.6712551,26.6666049 22.2953978,26.8070713 21.9195405,26.8070713 C21.5431344,26.8070713 21.1672771,26.6666049 20.8753704,26.3867695 L15.7000617,21.4238066 C15.0992387,20.8471262 15.0789369,19.8923937 15.6556173,19.2910219 C16.2322977,18.6896502 17.1870302,18.6698971 17.7884019,19.2465775 L21.9195405,23.2081687 L26.0495816,19.2465775 C26.6509534,18.6698971 27.6056859,18.6901989 28.1823663,19.2904733 C28.7590466,19.8923937 28.7387449,20.8465775 28.1379218,21.4238066 L28.1379218,21.4238066 Z M32.796358,14.5085802 C32.510487,13.7233951 31.7565775,13.195 30.9209122,13.195 L12.9000617,13.195 C12.0781139,13.195 11.328594,13.7118724 11.0361385,14.4816941 C10.9488957,14.7105007 10.905,14.9480864 10.905,15.1900617 L10.905,21.8276475 L10.9807202,23.1483608 C11.299513,26.1508299 12.8583608,28.7741495 15.2693347,30.6040535 C15.3126818,30.637524 15.3565775,30.6698971 15.4004733,30.7017215 L15.4284568,30.7209259 C16.7211866,31.6663306 18.1681001,32.3061111 19.7296914,32.6210631 C20.4501303,32.7670165 21.1870302,32.8410905 21.9189918,32.8410905 C22.5949863,32.8410905 23.2748217,32.7785391 23.9425857,32.6545336 C24.0226955,32.6386214 24.1022565,32.6238066 24.182915,32.6062483 C24.2054115,32.6018587 24.2290055,32.5925309 24.2536968,32.5810082 C25.7483471,32.2539849 27.1370988,31.631214 28.3815432,30.7209259 L28.4089781,30.7017215 C28.4528738,30.6698971 28.4973182,30.637524 28.5406653,30.6040535 C30.9516392,28.7741495 32.510487,26.1508299 32.8287311,23.1483608 L32.905,21.8276475 L32.905,15.1900617 C32.905,14.9607064 32.8770165,14.7329973 32.796358,14.5085802 L32.796358,14.5085802 Z" id="Shape" fill="#000000"></path>
            </g>
        </g>
    </g>
</svg>