<?xml version="1.0" encoding="UTF-8"?>
<svg width="44px" height="44px" viewBox="0 0 44 44" version="1.1" xmlns="http://www.w3.org/2000/svg" xmlns:xlink="http://www.w3.org/1999/xlink">
    <!-- Generator: Sketch 47.1 (45422) - http://www.bohemiancoding.com/sketch -->
    <title>slack</title>
    <desc>Created with Sketch.</desc>
    <defs></defs>
    <g id="Social-Icons" stroke="none" stroke-width="1" fill="none" fill-rule="evenodd">
        <g id="social-icons" transform="translate(-340.000000, -340.000000)">
            <g id="slack" transform="translate(340.000000, 340.000000)">
                <rect id="Rectangle" x="0" y="0" width="44" height="44"></rect>
                <circle id="Oval" stroke="#000000" stroke-width="2" cx="22" cy="22" r="21"></circle>
                <path d="M28.2558639,23.8834631 L26.8306739,24.360589 L27.3242997,25.8359666 C27.5243626,26.4327176 27.202612,27.0789688 26.6051735,27.2790317 C26.4752357,27.3230317 26.3432355,27.3415943 26.2139853,27.3381568 C25.7478594,27.3257817 25.3181712,27.0274062 25.1621084,26.5599054 L24.667795,25.0852152 L21.7287273,26.069717 L22.2223531,27.5444071 C22.422416,28.1418457 22.1006654,28.7880968 21.5032269,28.9881597 C21.3732891,29.0314723 21.2412889,29.0500348 21.1120387,29.0465973 C20.6459128,29.0349098 20.2162246,28.7358468 20.0601618,28.2690334 L19.5658484,26.7936558 L18.1406584,27.2714691 C18.0107206,27.3147817 17.8780329,27.3333443 17.7487827,27.3299067 C17.2833443,27.3182192 16.8536561,27.0191562 16.6969058,26.5516554 C16.4968429,25.9549043 16.8185935,25.3086531 17.4160321,25.1085903 L18.8419096,24.6307769 L17.8938454,21.8017094 L16.4686554,22.2795227 C16.3387177,22.3228353 16.2067174,22.3413979 16.0767797,22.3379603 C15.6113414,22.3262728 15.1816531,22.0272098 15.0249028,21.559709 C14.82484,20.9629579 15.147278,20.3167067 15.7440291,20.1166439 L17.1699066,19.6388305 L16.6755933,18.1641404 C16.4755304,17.5667018 16.797281,16.9204507 17.3947195,16.7210753 C17.9921581,16.5210125 18.6384093,16.8427631 18.8384721,17.4402016 L19.332098,18.9148917 L22.2718532,17.93039 L21.7775399,16.4556999 C21.577477,15.8582613 21.8999151,15.2120101 22.4966661,15.0119473 C23.0941047,14.8118844 23.7403559,15.1343225 23.9404187,15.7310736 L24.4340446,17.2064512 L25.8599221,16.7286378 C26.4573607,16.528575 27.1029244,16.8510131 27.3029872,17.4477641 C27.5030501,18.0452027 27.1812995,18.6914538 26.5838609,18.8915167 L25.1586709,19.3686426 L26.1060476,22.1983976 L27.5319251,21.7205842 C28.1286762,21.5212089 28.7749273,21.8429595 28.9749902,22.4397105 C29.175053,23.0371491 28.8533025,23.6834002 28.2558639,23.8834631 M19.9375159,20.9220177 L20.8848926,23.7510852 L23.8246479,22.7665835 L22.8772712,19.9375159 L19.9375159,20.9220177 Z M32.0790582,18.9760794 C34.3471248,26.5351553 32.5836841,29.8110987 25.0239206,32.0791652 C17.4648447,34.3472318 14.1889013,32.5831036 11.9208348,25.0240276 C9.65276824,17.4642642 11.4168964,14.1883208 18.9759724,11.9209418 C26.5357358,9.65287523 29.8116792,11.4163159 32.0790582,18.9760794 Z" id="Shape" fill="#000000"></path>
            </g>
        </g>
    </g>
</svg>