<?xml version="1.0" encoding="UTF-8"?>
<svg width="44px" height="44px" viewBox="0 0 44 44" version="1.1" xmlns="http://www.w3.org/2000/svg" xmlns:xlink="http://www.w3.org/1999/xlink">
    <!-- Generator: Sketch 47.1 (45422) - http://www.bohemiancoding.com/sketch -->
    <title>swarm</title>
    <desc>Created with Sketch.</desc>
    <defs></defs>
    <g id="Social-Icons" stroke="none" stroke-width="1" fill="none" fill-rule="evenodd">
        <g id="social-icons" transform="translate(-520.000000, -160.000000)">
            <g id="swarm" transform="translate(520.000000, 160.000000)">
                <rect id="Rectangle" x="0" y="0" width="44" height="44"></rect>
                <circle id="Oval" stroke="#000000" stroke-width="2" cx="22" cy="22" r="21"></circle>
                <path d="M19.9020281,29.3560864 C20.4848039,30.6869004 21.320599,31.8957549 22.3462369,32.9018731 C20.6140943,32.6153732 19.0334885,32.151622 17.8891208,31.760894 C17.8333178,31.7418914 16.9420321,31.4121749 16.6686412,31.3041337 C16.3311986,31.1713065 16.1558535,30.7712997 16.2843316,30.427093 C16.3890013,30.148855 16.7440033,29.2545276 16.7678118,29.1989182 C17.2525417,28.0621336 17.9804803,26.5384342 18.9436288,25.0230603 C18.9791852,26.5097715 19.303755,27.9886655 19.9020281,29.3560864 Z M22.2095102,18.3248841 C22.2325063,18.389836 22.3399255,18.6368691 22.3700453,18.6943217 L22.3657336,18.6964825 C13.1993569,22.8471731 9.21634763,17.0996964 10.1268176,14.6872624 C11.3129281,11.5447237 18.8268362,11.294068 22.2095102,18.3248841 Z M23.7991145,17.8423211 C21.928683,13.1178679 25.2043127,10.4064774 27.0071307,11.1103979 C28.3467151,11.633254 29.0696545,15.7053287 23.8932235,18.0496332 L23.8904739,18.05065 C23.878351,18.0160768 23.8170489,17.8767036 23.7991145,17.8423211 Z M33.4099155,23.1983072 C34.2012182,25.0057737 34.1691612,26.972188 33.4782788,28.6561698 C33.2095746,29.3109633 32.5331273,29.6773502 31.8551177,29.6773502 C31.4786193,29.6773502 31.101746,29.564606 30.7943609,29.324818 C29.6113123,28.4043066 28.6915939,27.1510916 28.0428919,25.6695283 C27.3844415,24.1657212 27.0868047,22.6066224 27.2187822,21.0747882 C27.2977063,20.1566918 28.1343138,19.4211851 29.0028534,19.4211851 C29.1743242,19.4211851 29.3469823,19.4497842 29.5152662,19.5113677 C31.1876689,20.1230719 32.6261115,21.4072374 33.4099155,23.1983072 Z M29.480897,31.0705739 C29.886328,31.3863722 30.3581226,31.6151654 30.8595998,31.7466579 C30.8217312,31.7726514 30.2424548,32.1410085 29.9795621,32.2770134 C29.1387053,32.7122925 28.2020523,33 27.2527764,33 C26.242386,33 25.0062839,32.6506454 24.3200883,32.0968387 C23.1949049,31.1882118 22.2622512,29.997915 21.6373576,28.570563 C20.9913426,27.0946559 20.7503836,25.5398788 20.8659889,24.0348006 C20.8902348,23.7192566 20.9633474,23.3895402 21.0605808,23.0895033 C21.4216443,21.9759793 22.2591267,21.033796 23.208965,20.3982593 C23.8642284,19.959866 24.6023527,19.622968 25.3640355,19.4293199 C25.36716,19.4284937 25.4589569,19.4052966 25.5019495,19.3947467 C25.2609281,19.8557651 25.1109536,20.36 25.0660238,20.8833009 C24.9043638,22.7633458 25.2418063,24.6746591 26.068978,26.5638556 C26.8840892,28.4266139 28.0323312,29.9429411 29.480897,31.0705739 Z" id="Shape" fill="#000000"></path>
            </g>
        </g>
    </g>
</svg>