<?xml version="1.0" encoding="UTF-8"?>
<svg width="44px" height="44px" viewBox="0 0 44 44" version="1.1" xmlns="http://www.w3.org/2000/svg" xmlns:xlink="http://www.w3.org/1999/xlink">
    <!-- Generator: Sketch 47.1 (45422) - http://www.bohemiancoding.com/sketch -->
    <title>web</title>
    <desc>Created with Sketch.</desc>
    <defs></defs>
    <g id="Social-Icons" stroke="none" stroke-width="1" fill="none" fill-rule="evenodd">
        <g id="social-icons" transform="translate(-580.000000, -460.000000)">
            <g id="web" transform="translate(580.000000, 460.000000)">
                <rect id="Rectangle" x="0" y="0" width="44" height="44"></rect>
                <circle id="Oval" stroke="#000000" stroke-width="2" cx="22" cy="22" r="21"></circle>
                <path d="M22,11 C15.923875,11 11,15.92525 11,22 C11,28.07475 15.923875,33 22,33 C28.07475,33 33,28.07475 33,22 C33,15.92525 28.07475,11 22,11 L22,11 Z M22,31.625 C20.647,31.625 19.358625,31.345875 18.19125,30.84125 L23.200375,25.2065 C23.31175,25.08 23.375,24.91775 23.375,24.75 L23.375,22.6875 C23.375,22.309375 23.065625,22 22.6875,22 C20.25925,22 17.697625,19.476875 17.672875,19.452125 C17.545,19.3215 17.370375,19.25 17.1875,19.25 L14.4375,19.25 C14.058,19.25 13.75,19.559375 13.75,19.9375 L13.75,24.0625 C13.75,24.322375 13.89575,24.561625 14.128125,24.677125 L16.5,25.862375 L16.5,29.899375 C14.00575,28.161375 12.375,25.271125 12.375,22 C12.375,20.52325 12.706375,19.124875 13.30175,17.875 L15.8125,17.875 C15.995375,17.875 16.17,17.802125 16.297875,17.67425 L19.047875,14.92425 C19.177125,14.795 19.25,14.620375 19.25,14.4375 L19.25,12.77375 C20.12175,12.51525 21.044375,12.375 22,12.375 C23.5125,12.375 24.943875,12.72425 26.21575,13.34575 C26.12775,13.421375 26.03975,13.49975 25.958625,13.58225 C25.177625,14.361875 24.75,15.39725 24.75,16.498625 C24.75,17.6 25.177625,18.638125 25.958625,19.415 C26.739625,20.197375 27.790125,20.623625 28.870875,20.623625 C28.939625,20.623625 29.008375,20.62225 29.077125,20.618125 C29.37275,21.731875 29.909,24.629 28.897,28.6165 C28.887375,28.655 28.881875,28.6935 28.879125,28.730625 C27.130125,30.515375 24.696375,31.623625 22.001375,31.623625 L22,31.625 L22,31.625 Z" id="Shape" fill="#000000"></path>
            </g>
        </g>
    </g>
</svg>